<svg xmlns="http://www.w3.org/2000/svg" width="24" height="24"><path fill="#181314" d="M12 2c5.523 0 10 4.477 10 10 0 5.522-4.477 10-10 10S2 17.522 2 12C2 6.477 6.477 2 12 2zm0 10.667l-5.98 5.982A8.908 8.908 0 0012 20.947a8.91 8.91 0 005.982-2.299L12 12.667zm-6.648-6.65A8.917 8.917 0 003.053 12c0 2.298.87 4.396 2.3 5.982L11.332 12zm13.297.001L12.667 12l5.98 5.982c1.43-1.586 2.3-3.684 2.3-5.982s-.87-4.396-2.298-5.982zM12 3.052a8.91 8.91 0 00-5.983 2.3L12 11.334l5.983-5.982A8.91 8.91 0 0012 3.052z"/></svg>